<mxfile host="65bd71144e">
    <diagram id="m_JoRwplT094Ma8gex2t" name="Page-1">
        <mxGraphModel dx="1216" dy="779" grid="1" gridSize="10" guides="1" tooltips="1" connect="1" arrows="1" fold="1" page="1" pageScale="1" pageWidth="850" pageHeight="1100" math="0" shadow="0">
            <root>
                <mxCell id="0"/>
                <mxCell id="1" parent="0"/>
                <mxCell id="2" value="" style="rounded=0;whiteSpace=wrap;html=1;" parent="1" vertex="1">
                    <mxGeometry x="160" y="80" width="480" height="640" as="geometry"/>
                </mxCell>
                <mxCell id="3" value="" style="rounded=0;whiteSpace=wrap;html=1;" parent="1" vertex="1">
                    <mxGeometry x="200" y="120" width="400" height="560" as="geometry"/>
                </mxCell>
                <mxCell id="4" value="" style="rounded=0;whiteSpace=wrap;html=1;" parent="1" vertex="1">
                    <mxGeometry x="240" y="160" width="320" height="400" as="geometry"/>
                </mxCell>
                <mxCell id="5" value="buttons" style="rounded=0;whiteSpace=wrap;html=1;" parent="1" vertex="1">
                    <mxGeometry x="320" y="570" width="160" height="30" as="geometry"/>
                </mxCell>
                <mxCell id="6" value="buttons" style="rounded=0;whiteSpace=wrap;html=1;" parent="1" vertex="1">
                    <mxGeometry x="320" y="610" width="160" height="30" as="geometry"/>
                </mxCell>
                <mxCell id="7" value="bg-container" style="rounded=0;whiteSpace=wrap;html=1;" parent="1" vertex="1">
                    <mxGeometry x="320" y="90" width="160" height="20" as="geometry"/>
                </mxCell>
                <mxCell id="8" value="game-container" style="rounded=0;whiteSpace=wrap;html=1;" parent="1" vertex="1">
                    <mxGeometry x="320" y="130" width="160" height="20" as="geometry"/>
                </mxCell>
                <mxCell id="9" value="text-container" style="rounded=0;whiteSpace=wrap;html=1;" parent="1" vertex="1">
                    <mxGeometry x="320" y="170" width="160" height="20" as="geometry"/>
                </mxCell>
            </root>
        </mxGraphModel>
    </diagram>
</mxfile>